<svg width="16" height="16" viewBox="0 0 16 16" fill="none" xmlns="http://www.w3.org/2000/svg">
<g id="fluent:call-28-filled">
<path id="Vector" d="M4.48566 1.54445L5.59251 1.21074C5.95781 1.10078 6.35064 1.12746 6.69772 1.2858C7.0448 1.44415 7.32242 1.72334 7.4788 2.07131L8.2548 3.79703C8.38948 4.09641 8.42702 4.43046 8.36215 4.75227C8.29727 5.07408 8.13324 5.36749 7.89309 5.59131L6.71194 6.69188C6.55366 6.84217 6.67366 7.42788 7.25194 8.43017C7.8308 9.43303 8.27823 9.8296 8.48451 9.76788L10.0319 9.29474C10.3456 9.1988 10.6814 9.20341 10.9923 9.30794C11.3032 9.41246 11.5737 9.61166 11.7657 9.8776L12.8685 11.4062C13.0913 11.7148 13.1944 12.0939 13.1588 12.4728C13.1232 12.8518 12.9512 13.205 12.6748 13.4667L11.8222 14.2742C11.547 14.5348 11.2076 14.7178 10.8385 14.8044C10.4695 14.891 10.0841 14.8782 9.72166 14.7673C7.93537 14.2205 6.28109 12.5976 4.73651 9.9216C3.18851 7.2416 2.60394 4.98103 3.01137 3.13417C3.09355 2.76203 3.27348 2.41853 3.53263 2.1391C3.79177 1.85966 4.12075 1.65439 4.48566 1.54445Z" fill="white"/>
</g>
</svg>
