<svg width="16" height="16" viewBox="0 0 16 16" fill="none" xmlns="http://www.w3.org/2000/svg">
<g id="entypo-social:vk-with-circle" clip-path="url(#clip0_4_142)">
<path id="Vector" d="M7.99995 0.320068C3.75835 0.320068 0.319946 3.75847 0.319946 8.00007C0.319946 12.2417 3.75835 15.6801 7.99995 15.6801C12.2415 15.6801 15.6799 12.2417 15.6799 8.00007C15.6799 3.75847 12.2415 0.320068 7.99995 0.320068ZM10.9535 8.98487C10.9535 8.98487 11.6327 9.65527 11.7999 9.96647C11.8047 9.97287 11.8071 9.97927 11.8087 9.98247C11.8767 10.0969 11.8927 10.1857 11.8591 10.2521C11.8031 10.3625 11.6111 10.4169 11.5455 10.4217H10.3455C10.2623 10.4217 10.0879 10.4001 9.87675 10.2545C9.71435 10.1409 9.55435 9.95447 9.39835 9.77287C9.16555 9.50247 8.96395 9.26887 8.76075 9.26887C8.73494 9.26882 8.70929 9.27287 8.68475 9.28087C8.53115 9.33047 8.33435 9.54967 8.33435 10.1337C8.33435 10.3161 8.19035 10.4209 8.08875 10.4209H7.53915C7.35195 10.4209 6.37675 10.3553 5.51275 9.44407C4.45515 8.32807 3.50315 6.08967 3.49515 6.06887C3.43515 5.92407 3.55915 5.84647 3.69435 5.84647H4.90635C5.06795 5.84647 5.12075 5.94487 5.15755 6.03207C5.20075 6.13367 5.35915 6.53767 5.61915 6.99207C6.04075 7.73287 6.29915 8.03367 6.50635 8.03367C6.5452 8.03321 6.58336 8.02333 6.61755 8.00487C6.88795 7.85447 6.83755 6.89047 6.82555 6.69047C6.82555 6.65287 6.82475 6.25927 6.68635 6.07047C6.58715 5.93367 6.41835 5.88167 6.31595 5.86247C6.35739 5.80528 6.412 5.7589 6.47515 5.72727C6.66075 5.63447 6.99515 5.62087 7.32715 5.62087H7.51195C7.87195 5.62567 7.96475 5.64887 8.09515 5.68167C8.35915 5.74487 8.36475 5.91527 8.34155 6.49847C8.33435 6.66407 8.32715 6.85127 8.32715 7.07207C8.32715 7.12007 8.32475 7.17127 8.32475 7.22567C8.31675 7.52247 8.30715 7.85927 8.51675 7.99767C8.54409 8.01481 8.57568 8.02396 8.60795 8.02407C8.68075 8.02407 8.89995 8.02407 9.49355 7.00567C9.67661 6.67788 9.8357 6.33725 9.96955 5.98647C9.98155 5.96567 10.0167 5.90167 10.0583 5.87687C10.089 5.86122 10.1231 5.85326 10.1575 5.85367H11.5823C11.7375 5.85367 11.8439 5.87687 11.8639 5.93687C11.8991 6.03207 11.8575 6.32247 11.2071 7.20327L10.9167 7.58647C10.3271 8.35927 10.3271 8.39847 10.9535 8.98487Z" fill="white"/>
</g>
<defs>
<clipPath id="clip0_4_142">
<rect width="16" height="16" fill="white"/>
</clipPath>
</defs>
</svg>
