<svg width="16" height="16" viewBox="0 0 16 16" fill="none" xmlns="http://www.w3.org/2000/svg">
<g id="mdi:youtube">
<path id="Vector" d="M6.66671 9.99992L10.1267 7.99992L6.66671 5.99992V9.99992ZM14.3734 4.77992C14.46 5.09325 14.52 5.51325 14.56 6.04658C14.6067 6.57992 14.6267 7.03992 14.6267 7.43992L14.6667 7.99992C14.6667 9.45992 14.56 10.5333 14.3734 11.2199C14.2067 11.8199 13.82 12.2066 13.22 12.3733C12.9067 12.4599 12.3334 12.5199 11.4534 12.5599C10.5867 12.6066 9.79337 12.6266 9.06004 12.6266L8.00004 12.6666C5.20671 12.6666 3.46671 12.5599 2.78004 12.3733C2.18004 12.2066 1.79337 11.8199 1.62671 11.2199C1.54004 10.9066 1.48004 10.4866 1.44004 9.95325C1.39337 9.41992 1.37337 8.95992 1.37337 8.55992L1.33337 7.99992C1.33337 6.53992 1.44004 5.46659 1.62671 4.77992C1.79337 4.17992 2.18004 3.79325 2.78004 3.62659C3.09337 3.53992 3.66671 3.47992 4.54671 3.43992C5.41337 3.39325 6.20671 3.37325 6.94004 3.37325L8.00004 3.33325C10.7934 3.33325 12.5334 3.43992 13.22 3.62659C13.82 3.79325 14.2067 4.17992 14.3734 4.77992Z" fill="white"/>
</g>
</svg>
